name processed_emg_signals
nRows=29
nColumns=7
 
endheader
time	RGLTMED	RRF	RADDLONG	RST	RTA	RGM
0.0751999999999999	-0.0157167948782444	-0.0331120789051055	-0.0172426961362361	0.0157167911529541	-0.0566109716892242	0.0135805271565914
0.0851999999999999	-0.006866562180221	-0.0135805318132042	-0.0291447341442108	0.0032043922692537	-0.011749449186027	-0.009308005683124
0.0951999999999999	-0.0239566676318645	-0.0270084701478481	-0.0279240123927593	-0.0053406599909067	0.0056458357721567	0.0270084664225578
0.10519999999999988	-0.0123598100617527	-0.0361638851463794	-0.0148012535646557	-0.0007629534229636	-0.0096131861209869	0.007171737961471
0.11519999999999989	-0.0175478775054216	-0.0221255831420421	-0.0007629534229636	-0.0032043969258666	0.0221255794167518	0.0218203999102115
0.12519999999999987	-0.0163271557539701	-0.0001525925472378	0.01449606847018	-0.0007629534229636	0.0135805271565914	0.01449606847018
0.13519999999999988	-0.0205996818840503	-0.0318913571536541	0.0273136459290981	-0.0135805318132042	0.0019836705178022	0.0135805271565914
0.14519999999999986	-0.0102235469967126	-0.0151064340025186	0.0221255794167518	-0.0083924643695354	0.0080872792750597	0.0135805271565914
0.15519999999999984	-0.0157167948782444	-0.0209048613905906	-0.02029450237751	0.0172426924109458	-0.0010681338608264	0.0175478719174861
0.16519999999999985	-0.0181582383811473	-0.017853058874607	-0.0364690646529197	-0.0028992164880037	0.0080872792750597	0.0080872792750597
0.17519999999999986	-0.0196841396391391	-0.0395208671689033	0.0028992118313908	-0.027618832886219	0.0056458357721567	-0.0065613817423582
0.18519999999999984	-0.030060276389122	-0.0090028252452611	0.0648508369922638	0.000152587890625	0.0007629487663507	0.0111390836536884
0.19519999999999982	-0.0108339078724384	-0.0386053286492824	0.1652552038431167	0.0083924597129225	-0.0111390883103013	0.0178530532866716
0.20519999999999983	-0.0123598100617527	-0.0245670266449451	0.1884489208459854	0.0148012489080429	0.0010681292042136	0.0132753467187285
0.2151999999999998	-0.0236514862626791	-0.0123598100617527	-0.1490806490182876	0.004730294458568	-0.0086976448073983	0.0105287227779626
0.22519999999999982	-0.0248722080141305	-0.0331120789051055	-0.1716639995574951	0.0050354748964309	-0.0028992164880037	0.0407415851950645
0.2351999999999998	-0.0175478775054216	-0.0514229051768779	0.0212100371718406	0.0248722024261951	-0.0743114352226257	0.0065613770857453
0.24519999999999978	-0.0096131861209869	-0.0239566676318645	0.0685130059719085	-0.0270084701478481	-0.0120546296238899	-0.0187685992568731
0.25519999999999976	-0.0215152241289615	-0.0151064340025186	0.0224307589232921	0.0080872792750597	-0.0035095773637294	-0.0077821034938097
0.26519999999999977	0.0022888509556651	-0.0175478775054216	-0.1036087572574615	-0.0028992164880037	0.000152587890625	0.0126649858430027
0.2751999999999998	-0.0413519516587257	-0.0297550950199365	-0.0669871121644973	-0.0212100427597761	0.0053406553342938	0.0126649858430027
0.2851999999999998	-0.0279240123927593	-0.0474555604159832	-0.0489814616739749	0.0105287227779626	-0.0059510208666324	-0.0102235469967126
0.2951999999999998	0.1020828559994697	-0.1264972984790802	0.018158234655857	-0.0715648159384727	-0.0205996818840503	-0.0541695281863212
0.30519999999999975	-0.039215687662363	0.3147936165332794	-0.062714584171772	0.1579308807849884	0.0044251140207052	0.0547798871994018
0.3151999999999997	-0.0120546296238899	-0.0984206944704055	-0.1423666775226593	-0.0267032906413078	0.0541695244610309	0.1628137677907943
0.3251999999999997	-0.0160219743847847	-0.0648508444428443	0.0431830286979675	-0.0209048613905906	0.0282291881740093	0.0111390836536884
0.3351999999999997	-0.0163271557539701	-0.0090028252452611	0.0764476954936981	-0.046540018171072	0.0019836705178022	-0.0306706354022026
0.34519999999999973	-0.0169375166296958	-0.0007629534229636	0.0639353021979332	0.0105287227779626	-0.0001525925472378	-0.0205996818840503
0.35519999999999974	-0.0218204036355018	-0.0242618471384048	0.0077820988371968	0.0315861739218235	-0.0126649904996156	0.026398105546832
